<svg width="13" height="14" viewBox="0 0 13 14" fill="none" xmlns="http://www.w3.org/2000/svg">
<g clip-path="url(#clip0_604_993)">
<path d="M7.57214 10.5C7.57214 10.2761 7.64609 10.0521 7.79398 9.88144L10.2886 6.99995L7.79457 4.11792C7.49879 3.77612 7.49879 3.22241 7.79457 2.88062C8.09036 2.53882 8.56953 2.53882 8.86532 2.88062L11.8942 6.38062C12.19 6.72241 12.19 7.27612 11.8942 7.61792L8.86532 11.1179C8.56953 11.4597 8.09036 11.4597 7.79457 11.1179C7.6455 10.9484 7.57214 10.7242 7.57214 10.5Z" fill="#00E5FF"/>
<path opacity="0.4" d="M9.5314 7.875H0.757212C0.338616 7.875 0 7.48398 0 6.97539C0 6.4668 0.338616 6.125 0.757212 6.125H9.5314L10.2886 7L9.5314 7.875Z" fill="#00E5FF"/>
</g>
<defs>
<clipPath id="clip0_604_993">
<rect width="12.1154" height="14" fill="white"/>
</clipPath>
</defs>
</svg>
