<svg width="48" height="48" viewBox="0 0 48 48" fill="none" xmlns="http://www.w3.org/2000/svg">
<circle cx="24" cy="24" r="24" fill="#00E5FF"/>
<path d="M33.75 25.5H14.25C13.0078 25.5 12 26.5078 12 27.75V32.25C12 33.4922 13.0078 34.5 14.25 34.5H33.75C34.9922 34.5 36 33.4922 36 32.25V27.75C36 26.5078 34.9922 25.5 33.75 25.5ZM27 31.5C26.1741 31.5 25.5 30.8259 25.5 30C25.5 29.1741 26.1741 28.5 27 28.5C27.8259 28.5 28.5 29.1741 28.5 30C28.5 30.8259 27.825 31.5 27 31.5ZM31.5 31.5C30.6741 31.5 30 30.8259 30 30C30 29.1741 30.6741 28.5 31.5 28.5C32.3259 28.5 33 29.1741 33 30C33 30.8259 32.325 31.5 31.5 31.5Z" fill="white"/>
<path opacity="0.4" d="M33.75 13.5H14.25C13.0078 13.5 12 14.5078 12 15.75V27.75C12 26.5078 13.0078 25.5 14.25 25.5H33.75C34.9922 25.5 36 26.5078 36 27.75V15.75C36 14.5078 34.9922 13.5 33.75 13.5ZM27 28.5C26.1741 28.5 25.5 29.1741 25.5 30C25.5 30.8259 26.1741 31.5 27 31.5C27.8259 31.5 28.5 30.8259 28.5 30C28.5 29.1741 27.825 28.5 27 28.5Z" fill="white"/>
</svg>
