<svg width="75" height="61" viewBox="0 0 75 61" fill="none" xmlns="http://www.w3.org/2000/svg">
<path d="M63.738 0.477173H11.2941C8.31355 0.477173 5.45513 1.66117 3.34759 3.7687C1.24006 5.87624 0.0560608 8.73466 0.0560608 11.7152V49.1751C0.0560608 52.1556 1.24006 55.0141 3.34759 57.1216C5.45513 59.2291 8.31355 60.4131 11.2941 60.4131H63.738C66.7185 60.4131 69.577 59.2291 71.6845 57.1216C73.792 55.0141 74.976 52.1556 74.976 49.1751V11.7152C74.976 8.73466 73.792 5.87624 71.6845 3.7687C69.577 1.66117 66.7185 0.477173 63.738 0.477173ZM63.738 7.96917L39.389 24.7138C38.8196 25.0426 38.1736 25.2156 37.516 25.2156C36.8585 25.2156 36.2125 25.0426 35.643 24.7138L11.2941 7.96917H63.738Z" fill="#EF4565"/>
</svg>
