<svg width="16" height="16" viewBox="0 0 16 16" fill="none" xmlns="http://www.w3.org/2000/svg">
<g clip-path="url(#clip0_929_3068)">
<path d="M10 11.9998C10 11.7439 10.0977 11.4879 10.293 11.2929L13.5875 7.9998L10.2937 4.70605C9.90312 4.31543 9.90312 3.68262 10.2937 3.29199C10.6844 2.90137 11.3172 2.90137 11.7078 3.29199L15.7078 7.29199C16.0984 7.68262 16.0984 8.31543 15.7078 8.70605L11.7078 12.7061C11.3172 13.0967 10.6844 13.0967 10.2937 12.7061C10.0969 12.5123 10 12.2561 10 11.9998Z" fill="white"/>
<path opacity="0.4" d="M12.5875 9H1C0.447187 9 0 8.55313 0 7.97188C0 7.39063 0.447187 7 1 7H12.5875L13.5875 8L12.5875 9Z" fill="white"/>
</g>
<defs>
<clipPath id="clip0_929_3068">
<rect width="16" height="16" fill="white"/>
</clipPath>
</defs>
</svg>
