<svg width="80" height="80" viewBox="0 0 80 80" fill="none" xmlns="http://www.w3.org/2000/svg">
<circle cx="40" cy="40" r="40" fill="#ECECFE"/>
<path d="M41.7812 40.1781V45.3438C41.7812 46.3271 40.9834 47.125 40 47.125C39.0166 47.125 38.2188 46.3271 38.2188 45.3438V40.1781C36.816 39.5102 35.8438 38.0926 35.8438 36.4375C35.8438 34.1419 37.7044 32.2812 40 32.2812C42.2956 32.2812 44.1562 34.1419 44.1562 36.4375C44.1562 38.0926 43.184 39.5102 41.7812 40.1781Z" fill="#651FFF"/>
<path opacity="0.4" d="M55.623 27.2114L41.373 21.2731C41.0094 21.1229 40.3934 21 40.0074 21C39.6141 21 38.998 21.1229 38.6344 21.2737L24.3844 27.212C23.0551 27.7598 22.1875 29.0602 22.1875 30.4332C22.1875 49.5891 36.2297 59 39.9332 59C43.7926 59 57.8125 49.4852 57.8125 30.4332C57.8125 29.0602 56.9441 27.7598 55.623 27.2114ZM41.7812 40.1781V45.3438C41.7812 46.3271 40.9834 47.125 40 47.125C39.0166 47.125 38.2188 46.3271 38.2188 45.3438V40.1781C36.816 39.5102 35.8438 38.0926 35.8438 36.4375C35.8438 34.1419 37.7044 32.2812 40 32.2812C42.2956 32.2812 44.1562 34.1419 44.1562 36.4375C44.1562 38.0926 43.184 39.5102 41.7812 40.1781Z" fill="#651FFF"/>
</svg>
