<svg width="24" height="24" viewBox="0 0 24 24" fill="none" xmlns="http://www.w3.org/2000/svg">
<circle cx="12" cy="12" r="12" fill="#ECECFE"/>
<g clip-path="url(#clip0_939_4771)">
<path opacity="0.4" d="M18.7949 8.94889L12.2393 15.5409L10.25 13.5473L16.8155 6.95745C16.88 6.89242 16.9566 6.84075 17.0411 6.80536C17.1256 6.76998 17.2162 6.75158 17.3077 6.75123C17.3993 6.75087 17.49 6.76856 17.5748 6.80329C17.6595 6.83802 17.7365 6.8891 17.8015 6.95362L17.8054 6.95745L18.7949 7.95303C18.9263 8.08547 19 8.26444 19 8.45096C19 8.63749 18.9263 8.81645 18.7949 8.94889Z" fill="#651FFF"/>
<path d="M12.2371 15.5434L10.7449 17.0437C10.6147 17.175 10.4376 17.2491 10.2527 17.2499C10.0678 17.2506 9.89017 17.1778 9.7589 17.0476L9.75507 17.0437L5.20507 12.4675C5.07368 12.3351 4.99994 12.1562 4.99994 11.9697C4.99994 11.7832 5.07368 11.6043 5.20507 11.4719L6.19491 10.4763C6.32496 10.3454 6.50161 10.2714 6.68614 10.2705C6.87067 10.2696 7.04802 10.342 7.17929 10.4717L7.18366 10.4763L12.2371 15.5434Z" fill="#651FFF"/>
</g>
<defs>
<clipPath id="clip0_939_4771">
<rect width="14" height="14" fill="white" transform="translate(5 5)"/>
</clipPath>
</defs>
</svg>
