<svg width="64" height="64" viewBox="0 0 64 64" fill="none" xmlns="http://www.w3.org/2000/svg">
<circle cx="32" cy="32" r="32" fill="white"/>
<g clip-path="url(#clip0_175_5400)">
<path d="M22.9757 21.5516C23.6786 17.2681 27.45 14 32 14C36.2571 14 39.8429 16.868 40.7929 20.75H38.2857C36.6571 20.75 35.2286 19.9126 34.4214 18.6519C33.15 20.5855 31.0429 21.875 28.5714 21.875H24.5714C24.0071 21.875 23.4643 21.7555 22.9757 21.5516ZM30.9357 39.2563L28.5714 35.375H35.4286L33.0643 39.2563L35.4429 47.968L38.2643 36.6336C43.7786 37.4773 48 42.1742 48 47.8414C48 49.0297 47.0143 50 45.8071 50H18.1943C16.9821 50 16 49.0297 16 47.8414C16 42.1742 20.2207 37.4773 25.7357 36.6336L28.5571 47.968L30.9357 39.2563Z" fill="#651FFF"/>
<path opacity="0.4" d="M34.4214 18.6519C35.2286 19.9133 36.6571 20.75 38.2857 20.75H40.7929C41.0429 21.4672 41.1429 22.1633 41.1429 23C41.1429 27.9711 37.05 32 32 32C26.95 32 22.8571 27.9711 22.8571 23C22.8571 22.4445 22.8979 22.0226 22.975 21.5515C23.4643 21.7625 24.0071 21.875 24.5714 21.875H28.5714C31.0429 21.875 33.15 20.5854 34.4214 18.6519Z" fill="#651FFF"/>
</g>
<defs>
<clipPath id="clip0_175_5400">
<rect width="32" height="36" fill="white" transform="translate(16 14)"/>
</clipPath>
</defs>
</svg>
